<svg width="451" height="60" viewBox="0 0 451 60" fill="none" xmlns="http://www.w3.org/2000/svg">
<rect x="0.5" y="0.5" width="450" height="59" rx="15.5" stroke="#242424"/>
<path d="M173.102 28.9717C173.119 27.6699 173.465 26.3934 174.108 25.2608C174.752 24.1285 175.671 23.1771 176.781 22.4951C176.076 21.4888 175.146 20.6606 174.064 20.0764C172.982 19.4921 171.779 19.168 170.55 19.1295C167.928 18.8546 165.387 20.6969 164.051 20.6969C162.689 20.6969 160.632 19.1569 158.417 19.2023C156.984 19.2486 155.588 19.6649 154.364 20.4105C153.14 21.1563 152.131 22.206 151.434 23.4574C148.414 28.6804 150.667 36.3565 153.559 40.5784C155.006 42.6457 156.697 44.955 158.91 44.8731C161.076 44.7833 161.885 43.4933 164.499 43.4933C167.088 43.4933 167.847 44.8731 170.105 44.821C172.429 44.7833 173.893 42.7444 175.289 40.6575C176.329 39.1845 177.129 37.5565 177.66 35.8338C176.31 35.2633 175.158 34.3084 174.347 33.0881C173.537 31.8678 173.104 30.4361 173.102 28.9717Z" fill="#242424"/>
<path d="M168.842 16.3511C170.109 14.8315 170.733 12.8782 170.582 10.9062C168.647 11.1093 166.858 12.0337 165.574 13.495C164.947 14.2088 164.466 15.0393 164.159 15.939C163.853 16.8387 163.727 17.7899 163.789 18.7383C164.757 18.7481 165.715 18.5385 166.59 18.1251C167.465 17.7116 168.235 17.1049 168.842 16.3511Z" fill="#242424"/>
<path d="M199.089 39.8501H191.982L190.276 44.8848H187.266L193.997 26.2578H197.124L203.855 44.8848H200.794L199.089 39.8501ZM192.718 37.5269H198.351L195.575 29.356H195.497L192.718 37.5269Z" fill="#242424"/>
<path d="M218.39 38.0918C218.39 42.3119 216.129 45.0234 212.717 45.0234C211.853 45.0687 210.994 44.8697 210.237 44.4494C209.481 44.0293 208.858 43.4048 208.441 42.6474H208.376V49.3739H205.586V31.3008H208.287V33.5596H208.338C208.775 32.8059 209.408 32.1846 210.17 31.7618C210.932 31.3392 211.795 31.1307 212.666 31.1588C216.116 31.1588 218.39 33.8833 218.39 38.0918ZM215.522 38.0918C215.522 35.3423 214.1 33.5348 211.93 33.5348C209.798 33.5348 208.364 35.3804 208.364 38.0918C208.364 40.8282 209.798 42.6606 211.93 42.6606C214.1 42.6606 215.522 40.8662 215.522 38.0918Z" fill="#242424"/>
<path d="M233.352 38.0918C233.352 42.3119 231.09 45.0234 227.678 45.0234C226.814 45.0687 225.954 44.8697 225.198 44.4496C224.442 44.0293 223.819 43.4048 223.401 42.6474H223.337V49.3739H220.547V31.3008H223.248V33.5596H223.299C223.736 32.8059 224.369 32.1846 225.131 31.7618C225.893 31.3392 226.756 31.1307 227.627 31.1588C231.077 31.1588 233.352 33.8833 233.352 38.0918ZM230.483 38.0918C230.483 35.3423 229.061 33.5348 226.891 33.5348C224.759 33.5348 223.325 35.3804 223.325 38.0918C223.325 40.8282 224.759 42.6606 226.891 42.6606C229.061 42.6606 230.483 40.8662 230.483 38.0918Z" fill="#242424"/>
<path d="M243.239 39.6928C243.446 41.54 245.242 42.7528 247.696 42.7528C250.048 42.7528 251.74 41.54 251.74 39.8743C251.74 38.4286 250.719 37.563 248.303 36.9696L245.887 36.388C242.464 35.562 240.874 33.9624 240.874 31.3667C240.874 28.1528 243.678 25.9453 247.656 25.9453C251.598 25.9453 254.298 28.1528 254.389 31.3667H251.573C251.404 29.5078 249.866 28.3857 247.618 28.3857C245.37 28.3857 243.833 29.521 243.833 31.1732C243.833 32.4902 244.815 33.265 247.218 33.8582L249.272 34.3622C253.097 35.266 254.686 36.8012 254.686 39.5258C254.686 43.0105 251.908 45.1932 247.489 45.1932C243.355 45.1932 240.563 43.0618 240.383 39.6927L243.239 39.6928Z" fill="#242424"/>
<path d="M260.71 28.0859V31.2998H263.295V33.5072H260.71V40.994C260.71 42.1572 261.227 42.6991 262.364 42.6991C262.67 42.6938 262.977 42.6722 263.281 42.6346V44.8289C262.771 44.9244 262.252 44.9675 261.732 44.9578C258.979 44.9578 257.906 43.9251 257.906 41.2914V33.5072H255.93V31.2998H257.906V28.0859H260.71Z" fill="#242424"/>
<path d="M264.789 38.0908C264.789 33.818 267.307 31.1328 271.235 31.1328C275.176 31.1328 277.683 33.8178 277.683 38.0908C277.683 42.3756 275.189 45.0489 271.235 45.0489C267.283 45.0489 264.789 42.3756 264.789 38.0908ZM274.841 38.0908C274.841 35.1598 273.496 33.4297 271.235 33.4297C268.975 33.4297 267.631 35.173 267.631 38.0908C267.631 41.0338 268.975 42.7506 271.235 42.7506C273.496 42.7506 274.841 41.0338 274.841 38.0908Z" fill="#242424"/>
<path d="M279.984 31.3007H282.646V33.6122H282.71C282.89 32.8902 283.313 32.2522 283.908 31.8054C284.505 31.3587 285.236 31.1302 285.979 31.1586C286.301 31.1574 286.622 31.1923 286.936 31.2627V33.8699C286.53 33.7461 286.107 33.6892 285.683 33.7015C285.277 33.6852 284.872 33.7565 284.497 33.9108C284.121 34.0652 283.786 34.2988 283.51 34.5957C283.233 34.8924 283.024 35.2454 282.898 35.6305C282.77 36.0155 282.729 36.4233 282.774 36.826V44.8812H279.984V31.3007Z" fill="#242424"/>
<path d="M299.801 40.8917C299.426 43.357 297.022 45.0489 293.948 45.0489C289.993 45.0489 287.539 42.4018 287.539 38.1553C287.539 33.8955 290.007 31.1328 293.831 31.1328C297.591 31.1328 299.957 33.7139 299.957 37.8315V38.7866H290.356V38.9552C290.311 39.4549 290.374 39.9584 290.54 40.4321C290.706 40.906 290.969 41.3391 291.316 41.7029C291.661 42.0667 292.08 42.3528 292.545 42.5424C293.009 42.7318 293.51 42.8203 294.013 42.8017C294.672 42.8635 295.334 42.7109 295.899 42.3667C296.464 42.0227 296.903 41.5052 297.152 40.8917H299.801ZM290.368 36.8384H297.165C297.19 36.3891 297.122 35.9394 296.965 35.5176C296.808 35.0957 296.565 34.7109 296.251 34.3873C295.938 34.0635 295.562 33.808 295.145 33.6367C294.729 33.4654 294.281 33.382 293.831 33.3917C293.377 33.3889 292.926 33.4761 292.506 33.6482C292.085 33.8203 291.703 34.0739 291.381 34.3945C291.059 34.7148 290.804 35.0958 290.63 35.5153C290.457 35.9347 290.367 36.3845 290.368 36.8384Z" fill="#242424"/>
<path d="M192.369 12.2367C192.953 12.1947 193.541 12.283 194.087 12.4952C194.634 12.7073 195.127 13.038 195.53 13.4635C195.933 13.8889 196.237 14.3985 196.419 14.9554C196.601 15.5123 196.658 16.1026 196.584 16.6839C196.584 19.5433 195.037 21.1869 192.369 21.1869H189.133V12.2367H192.369ZM190.524 19.9212H192.213C192.631 19.9462 193.049 19.8777 193.438 19.7207C193.826 19.5638 194.174 19.3224 194.457 19.014C194.74 18.7058 194.951 18.3383 195.074 17.9382C195.196 17.5384 195.229 17.1161 195.168 16.7022C195.224 16.29 195.189 15.8704 195.064 15.4733C194.939 15.0763 194.728 14.7118 194.446 14.406C194.163 14.1 193.817 13.8604 193.431 13.704C193.045 13.5475 192.629 13.4784 192.213 13.5015H190.524V19.9212Z" fill="#242424"/>
<path d="M198.156 17.8094C198.113 17.3654 198.164 16.9176 198.305 16.4944C198.446 16.0713 198.674 15.6824 198.974 15.3524C199.274 15.0224 199.64 14.7588 200.048 14.5784C200.456 14.398 200.898 14.3047 201.344 14.3047C201.79 14.3047 202.232 14.398 202.64 14.5784C203.048 14.7588 203.414 15.0224 203.714 15.3524C204.014 15.6824 204.242 16.0713 204.383 16.4944C204.524 16.9176 204.575 17.3654 204.532 17.8094C204.575 18.2536 204.525 18.7021 204.385 19.1258C204.244 19.5496 204.016 19.9394 203.716 20.2701C203.416 20.6006 203.05 20.8649 202.641 21.0456C202.233 21.2264 201.791 21.3198 201.344 21.3198C200.897 21.3198 200.455 21.2264 200.047 21.0456C199.638 20.8649 199.272 20.6006 198.972 20.2701C198.671 19.9394 198.444 19.5496 198.303 19.1258C198.163 18.7021 198.112 18.2536 198.156 17.8094ZM203.16 17.8094C203.16 16.3452 202.501 15.489 201.346 15.489C200.186 15.489 199.534 16.3452 199.534 17.8094C199.534 19.2851 200.186 20.1348 201.346 20.1348C202.501 20.1348 203.16 19.2792 203.16 17.8094Z" fill="#242424"/>
<path d="M213.005 21.1839H211.621L210.223 16.2094H210.118L208.727 21.1839H207.356L205.492 14.4297H206.845L208.056 19.5837H208.156L209.546 14.4297H210.826L212.216 19.5837H212.321L213.527 14.4297H214.861L213.005 21.1839Z" fill="#242424"/>
<path d="M216.43 14.434H217.714V15.5069H217.814C217.983 15.1216 218.268 14.7985 218.63 14.5828C218.991 14.3671 219.411 14.2694 219.831 14.3035C220.16 14.2788 220.49 14.3285 220.798 14.4486C221.105 14.5687 221.381 14.7564 221.606 14.9976C221.83 15.2388 221.998 15.5275 222.096 15.8424C222.194 16.1571 222.219 16.4897 222.171 16.8157V21.1882H220.837V17.1505C220.837 16.0651 220.365 15.5252 219.378 15.5252C219.155 15.5148 218.932 15.5529 218.725 15.6366C218.517 15.7203 218.331 15.8478 218.177 16.0105C218.024 16.1731 217.908 16.3667 217.836 16.5785C217.765 16.7901 217.74 17.0147 217.764 17.237V21.1884H216.43V14.434Z" fill="#242424"/>
<path d="M224.297 11.7969H225.631V21.188H224.297V11.7969Z" fill="#242424"/>
<path d="M227.484 17.8094C227.441 17.3655 227.492 16.9176 227.633 16.4946C227.774 16.0714 228.002 15.6824 228.302 15.3524C228.602 15.0224 228.968 14.7588 229.376 14.5784C229.785 14.398 230.226 14.3047 230.672 14.3047C231.119 14.3047 231.56 14.398 231.968 14.5784C232.376 14.7588 232.742 15.0224 233.043 15.3524C233.343 15.6824 233.571 16.0714 233.712 16.4946C233.853 16.9176 233.903 17.3655 233.861 17.8094C233.904 18.2538 233.854 18.7023 233.713 19.126C233.573 19.5498 233.345 19.9395 233.045 20.2701C232.744 20.6007 232.378 20.8649 231.97 21.0457C231.561 21.2265 231.119 21.3199 230.672 21.3199C230.226 21.3199 229.784 21.2265 229.375 21.0457C228.966 20.8649 228.6 20.6007 228.3 20.2701C228 19.9395 227.772 19.5498 227.631 19.126C227.491 18.7023 227.441 18.2538 227.484 17.8094ZM232.488 17.8094C232.488 16.3454 231.83 15.4891 230.674 15.4891C229.514 15.4891 228.862 16.3454 228.862 17.8094C228.862 19.2852 229.515 20.1348 230.674 20.1348C231.83 20.1348 232.488 19.2794 232.488 17.8094Z" fill="#242424"/>
<path d="M235.266 19.2794C235.266 18.0636 236.172 17.3625 237.78 17.263L239.611 17.1576V16.5745C239.611 15.8611 239.14 15.4583 238.228 15.4583C237.482 15.4583 236.967 15.7315 236.818 16.209H235.527C235.663 15.0488 236.755 14.3047 238.289 14.3047C239.983 14.3047 240.94 15.1477 240.94 16.5745V21.1894H239.655V20.2402H239.55C239.336 20.5807 239.034 20.8583 238.678 21.0446C238.321 21.2309 237.921 21.3194 237.519 21.3007C237.235 21.3303 236.949 21.3 236.677 21.2119C236.406 21.124 236.156 20.98 235.944 20.7895C235.731 20.5991 235.561 20.3663 235.444 20.1063C235.328 19.846 235.267 19.5644 235.266 19.2794ZM239.611 18.7021V18.1375L237.96 18.2429C237.03 18.3052 236.607 18.6216 236.607 19.2171C236.607 19.825 237.135 20.1787 237.86 20.1787C238.074 20.2002 238.288 20.1787 238.492 20.1156C238.696 20.0526 238.886 19.9489 239.049 19.8112C239.213 19.6735 239.347 19.5042 239.443 19.3137C239.54 19.1232 239.597 18.9153 239.611 18.7021Z" fill="#242424"/>
<path d="M242.695 17.8079C242.695 15.6737 243.794 14.3216 245.502 14.3216C245.924 14.3021 246.344 14.4033 246.711 14.613C247.078 14.8229 247.378 15.1329 247.575 15.5066H247.675V11.7969H249.009V21.188H247.731V20.1209H247.625C247.413 20.4921 247.102 20.7982 246.728 21.0059C246.354 21.2136 245.93 21.315 245.502 21.2992C243.782 21.2994 242.695 19.9473 242.695 17.8079ZM244.074 17.8079C244.074 19.2405 244.75 20.1026 245.88 20.1026C247.005 20.1026 247.7 19.2281 247.7 17.8138C247.7 16.4061 246.997 15.519 245.88 15.519C244.757 15.519 244.074 16.387 244.074 17.8079Z" fill="#242424"/>
<path d="M254.531 17.8094C254.489 17.3654 254.539 16.9176 254.68 16.4944C254.821 16.0713 255.049 15.6824 255.349 15.3524C255.649 15.0224 256.015 14.7588 256.423 14.5784C256.832 14.398 257.273 14.3047 257.718 14.3047C258.165 14.3047 258.606 14.398 259.015 14.5784C259.423 14.7588 259.788 15.0224 260.089 15.3524C260.389 15.6824 260.617 16.0713 260.759 16.4944C260.898 16.9176 260.95 17.3654 260.908 17.8094C260.95 18.2536 260.901 18.7021 260.759 19.1258C260.62 19.5496 260.392 19.9394 260.092 20.2701C259.791 20.6006 259.425 20.8649 259.017 21.0456C258.607 21.2264 258.166 21.3198 257.718 21.3198C257.272 21.3198 256.831 21.2264 256.421 21.0456C256.013 20.8649 255.647 20.6006 255.346 20.2701C255.046 19.9394 254.819 19.5496 254.678 19.1258C254.538 18.7021 254.488 18.2536 254.531 17.8094ZM259.535 17.8094C259.535 16.3452 258.877 15.489 257.721 15.489C256.561 15.489 255.909 16.3452 255.909 17.8094C255.909 19.2851 256.561 20.1348 257.721 20.1348C258.877 20.1348 259.535 19.2792 259.535 17.8094Z" fill="#242424"/>
<path d="M262.695 14.434H263.98V15.5069H264.079C264.249 15.1216 264.534 14.7985 264.895 14.5828C265.257 14.3671 265.678 14.2694 266.097 14.3035C266.425 14.2788 266.756 14.3285 267.063 14.4486C267.37 14.5687 267.647 14.7564 267.871 14.9976C268.096 15.2388 268.263 15.5275 268.361 15.8424C268.459 16.1571 268.485 16.4897 268.436 16.8157V21.1882H267.102V17.1505C267.102 16.0651 266.63 15.5252 265.643 15.5252C265.421 15.5148 265.197 15.5529 264.99 15.6366C264.784 15.7203 264.597 15.8478 264.442 16.0105C264.289 16.1731 264.173 16.3667 264.101 16.5785C264.03 16.7901 264.006 17.0147 264.029 17.237V21.1884H262.695V14.434Z" fill="#242424"/>
<path d="M275.971 12.75V14.4624H277.436V15.5853H275.971V19.0584C275.971 19.7659 276.262 20.0757 276.927 20.0757C277.098 20.0752 277.267 20.0649 277.436 20.0449V21.1553C277.196 21.1981 276.953 21.2209 276.71 21.2233C275.226 21.2233 274.635 20.7019 274.635 19.3998V15.5853H273.562V14.4624H274.635V12.75H275.971Z" fill="#242424"/>
<path d="M279.266 11.7969H280.587V15.519H280.692C280.871 15.1301 281.163 14.8052 281.533 14.5886C281.9 14.3722 282.328 14.2746 282.754 14.3092C283.082 14.2914 283.409 14.3459 283.712 14.4689C284.015 14.592 284.288 14.7806 284.511 15.021C284.733 15.2616 284.9 15.5482 284.998 15.8604C285.098 16.1726 285.126 16.5026 285.083 16.8272V21.188H283.746V17.1561C283.746 16.0772 283.244 15.5308 282.301 15.5308C282.072 15.512 281.841 15.5435 281.625 15.6231C281.408 15.7027 281.213 15.8283 281.052 15.9914C280.89 16.1546 280.764 16.3511 280.686 16.5674C280.609 16.7835 280.579 17.0141 280.599 17.2432V21.188H279.266V11.7969Z" fill="#242424"/>
<path d="M292.858 19.3658C292.677 19.9831 292.285 20.5171 291.75 20.8743C291.214 21.2317 290.57 21.3893 289.929 21.3199C289.483 21.3318 289.041 21.2464 288.631 21.0701C288.223 20.8938 287.858 20.6307 287.56 20.2989C287.262 19.9673 287.041 19.575 286.912 19.1493C286.781 18.7235 286.745 18.2746 286.807 17.8336C286.747 17.3913 286.783 16.9414 286.913 16.5144C287.044 16.0873 287.264 15.6933 287.559 15.3586C287.855 15.024 288.218 14.7567 288.627 14.5749C289.034 14.3932 289.476 14.301 289.923 14.3048C291.805 14.3048 292.94 15.5888 292.94 17.7098V18.1749H288.166V18.2497C288.144 18.4974 288.176 18.747 288.257 18.9821C288.338 19.2172 288.468 19.4328 288.638 19.6149C288.807 19.7973 289.012 19.9419 289.241 20.04C289.471 20.1382 289.716 20.1874 289.966 20.1847C290.286 20.2228 290.609 20.1654 290.894 20.0197C291.181 19.8739 291.417 19.6463 291.574 19.3658H292.858ZM288.166 17.1892H291.581C291.596 16.9624 291.566 16.7347 291.489 16.5206C291.413 16.3065 291.293 16.1108 291.136 15.9459C290.979 15.7812 290.789 15.651 290.579 15.5638C290.369 15.4764 290.144 15.4342 289.916 15.4393C289.686 15.4363 289.457 15.4797 289.243 15.5666C289.029 15.6536 288.835 15.7823 288.672 15.9454C288.509 16.1085 288.38 16.3025 288.293 16.5161C288.206 16.7298 288.162 16.9584 288.166 17.1892Z" fill="#242424"/>
</svg>
