<svg width="451" height="60" viewBox="0 0 451 60" fill="none" xmlns="http://www.w3.org/2000/svg">
<rect x="0.5" y="0.5" width="450" height="59" rx="15.5" fill="#E0FF32"/>
<rect x="0.5" y="0.5" width="450" height="59" rx="15.5" stroke="#242424"/>
<path d="M225.891 32.6247C224.637 32.6306 223.412 33.0095 222.372 33.7136C221.332 34.4176 220.522 35.4154 220.046 36.5807C219.57 37.7461 219.449 39.027 219.697 40.2616C219.946 41.4962 220.553 42.6294 221.442 43.518C222.331 44.4065 223.462 45.0106 224.693 45.2543C225.924 45.4978 227.2 45.3699 228.358 44.8865C229.516 44.4031 230.506 43.586 231.202 42.5382C231.898 41.4905 232.27 40.2593 232.27 38.9997C232.282 38.1566 232.125 37.3197 231.809 36.5386C231.492 35.7578 231.022 35.0487 230.427 34.4539C229.832 33.8591 229.124 33.3905 228.344 33.0763C227.565 32.762 226.731 32.6085 225.891 32.6247ZM225.891 42.8697C225.12 42.9238 224.35 42.7437 223.681 42.3527C223.013 41.9618 222.478 41.378 222.144 40.6772C221.811 39.9766 221.695 39.1914 221.812 38.4238C221.929 37.6562 222.273 36.9417 222.8 36.3732C223.327 35.8047 224.012 35.4084 224.765 35.2359C225.519 35.0633 226.308 35.1225 227.028 35.4057C227.748 35.6891 228.367 36.1832 228.803 36.8242C229.24 37.4652 229.474 38.2231 229.476 38.9997C229.5 39.4917 229.427 39.9836 229.258 40.4462C229.09 40.9091 228.831 41.3333 228.496 41.694C228.163 42.0545 227.759 42.3444 227.312 42.5464C226.865 42.7483 226.382 42.8582 225.891 42.8697ZM211.983 32.6247C210.728 32.6277 209.501 33.0041 208.459 33.7063C207.417 34.4086 206.606 35.4053 206.127 36.5705C205.649 37.7356 205.526 39.0169 205.772 40.2526C206.019 41.4882 206.625 42.6226 207.513 43.5128C208.402 44.4027 209.533 45.0084 210.764 45.2532C211.996 45.498 213.271 45.3709 214.431 44.888C215.59 44.405 216.581 43.5879 217.278 42.5398C217.975 41.4917 218.347 40.2598 218.347 38.9997C218.359 38.1566 218.202 37.3197 217.885 36.5386C217.569 35.7578 217.099 35.0487 216.504 34.4539C215.908 33.8591 215.2 33.3905 214.421 33.0763C213.642 32.762 212.807 32.6085 211.968 32.6247H211.983ZM211.983 42.8697C211.211 42.9268 210.44 42.7494 209.77 42.3605C209.1 41.9715 208.562 41.3889 208.226 40.6888C207.89 39.9886 207.772 39.2032 207.887 38.4346C208.002 37.6662 208.345 36.9503 208.871 36.3802C209.397 35.81 210.082 35.4121 210.836 35.2382C211.591 35.0644 212.38 35.1226 213.101 35.4052C213.822 35.6878 214.441 36.1819 214.878 36.8229C215.316 37.4641 215.551 38.2226 215.553 38.9997C215.577 39.4917 215.503 39.9836 215.334 40.4462C215.166 40.9091 214.908 41.3333 214.573 41.694C214.239 42.0545 213.836 42.3444 213.389 42.5464C212.941 42.7483 212.458 42.8582 211.968 42.8697H211.983ZM195.415 34.5897V37.2897H201.869C201.768 38.5614 201.241 39.7614 200.375 40.6947C199.729 41.355 198.953 41.8723 198.096 42.2134C197.239 42.5544 196.321 42.7115 195.4 42.6747C193.498 42.6747 191.674 41.9161 190.33 40.5658C188.985 39.2156 188.229 37.3842 188.229 35.4747C188.229 33.5651 188.985 31.7337 190.33 30.3834C191.674 29.0333 193.498 28.2747 195.4 28.2747C197.219 28.2448 198.976 28.9407 200.285 30.2097L202.182 28.3047C201.299 27.4062 200.245 26.6949 199.082 26.2132C197.92 25.7314 196.673 25.4887 195.415 25.4997C194.087 25.4478 192.762 25.6655 191.52 26.1401C190.278 26.6146 189.144 27.3361 188.186 28.2612C187.228 29.1863 186.466 30.296 185.945 31.524C185.425 32.7519 185.156 34.0726 185.156 35.4072C185.156 36.7417 185.425 38.0625 185.945 39.2904C186.466 40.5182 187.228 41.6281 188.186 42.5532C189.144 43.4783 190.278 44.1997 191.52 44.6742C192.762 45.1487 194.087 45.3665 195.415 45.3147C196.694 45.3727 197.97 45.155 199.158 44.6764C200.346 44.1976 201.418 43.4692 202.302 42.5397C203.867 40.8131 204.703 38.5433 204.632 36.2097C204.637 35.6412 204.587 35.0735 204.483 34.5147L195.415 34.5897ZM263.104 36.6897C262.715 35.5388 261.985 34.5339 261.014 33.8079C260.043 33.0821 258.877 32.6694 257.667 32.6247C256.85 32.6231 256.041 32.7897 255.29 33.1145C254.539 33.4392 253.864 33.915 253.303 34.5125C252.744 35.1099 252.311 35.8164 252.035 36.5882C251.757 37.3601 251.64 38.1807 251.691 38.9997C251.673 39.8381 251.823 40.6715 252.133 41.4502C252.443 42.2289 252.906 42.9369 253.494 43.532C254.083 44.1271 254.784 44.597 255.558 44.9135C256.331 45.23 257.161 45.387 257.995 45.3747C259.04 45.3803 260.07 45.1257 260.993 44.6336C261.916 44.1414 262.702 43.427 263.284 42.5547L261.118 41.0547C260.794 41.5959 260.337 42.0435 259.789 42.3538C259.242 42.6639 258.624 42.8262 257.995 42.8247C257.348 42.8495 256.708 42.6781 256.16 42.3331C255.611 41.988 255.179 41.4849 254.918 40.8897L263.418 37.3647L263.104 36.6897ZM254.44 38.8197C254.41 38.3557 254.472 37.8904 254.623 37.4509C254.774 37.0112 255.01 36.6065 255.32 36.26C255.629 35.9135 256.003 35.6326 256.422 35.4332C256.84 35.234 257.294 35.1206 257.756 35.0997C258.238 35.0678 258.719 35.1788 259.139 35.4188C259.558 35.6588 259.898 36.0172 260.117 36.4497L254.44 38.8197ZM247.538 44.9997H250.331V26.2497H247.538V44.9997ZM242.966 34.0497H242.862C242.441 33.5769 241.926 33.1991 241.348 32.9405C240.771 32.6821 240.147 32.5489 239.515 32.5497C237.883 32.6292 236.343 33.3363 235.216 34.5245C234.088 35.7128 233.46 37.2909 233.46 38.9322C233.46 40.5733 234.088 42.1516 235.216 43.3397C236.343 44.528 237.883 45.2352 239.515 45.3147C240.149 45.3253 240.776 45.1966 241.355 44.9375C241.933 44.6783 242.447 44.295 242.862 43.8147H242.951V44.7297C242.951 47.1747 241.652 48.4797 239.56 48.4797C238.864 48.4632 238.188 48.2392 237.618 47.8358C237.049 47.4324 236.612 46.8682 236.363 46.2147L233.928 47.2347C234.386 48.3541 235.168 49.3107 236.171 49.9816C237.175 50.6524 238.355 51.0069 239.56 50.9997C242.832 50.9997 245.536 49.0647 245.536 44.3547V32.9997H242.966V34.0497ZM239.769 42.8697C238.806 42.7843 237.909 42.3398 237.256 41.6233C236.602 40.907 236.24 39.971 236.24 38.9997C236.24 38.0284 236.602 37.0922 237.256 36.3759C237.909 35.6596 238.806 35.2149 239.769 35.1297C240.247 35.1543 240.715 35.2747 241.146 35.4837C241.577 35.6927 241.961 35.9863 242.277 36.3469C242.594 36.7076 242.835 37.1281 242.986 37.5837C243.138 38.0393 243.197 38.5207 243.161 38.9997C243.201 39.4807 243.145 39.965 242.993 40.4233C242.843 40.8818 242.601 41.3045 242.282 41.6664C241.963 42.0281 241.576 42.3212 241.141 42.5281C240.707 42.7348 240.236 42.851 239.755 42.8697H239.769ZM276.191 26.2497H269.513V44.9997H272.307V37.8897H276.206C277.003 37.9471 277.802 37.8391 278.554 37.5728C279.308 37.3062 279.998 36.887 280.582 36.3409C281.166 35.7949 281.632 35.1338 281.951 34.3989C282.269 33.6641 282.433 32.8711 282.433 32.0697C282.433 31.2682 282.269 30.4752 281.951 29.7403C281.632 29.0056 281.166 28.3445 280.582 27.7984C279.998 27.2524 279.308 26.8331 278.554 26.5666C277.802 26.3 277.003 26.1923 276.206 26.2497H276.191ZM276.191 35.2497H272.292V28.8597H276.251C277.1 28.8597 277.916 29.1987 278.516 29.8021C279.118 30.4055 279.456 31.2238 279.456 32.0772C279.456 32.9304 279.118 33.7489 278.516 34.3523C277.916 34.9557 277.1 35.2947 276.251 35.2947L276.191 35.2497ZM293.416 32.5497C292.399 32.4886 291.386 32.7272 290.503 33.2363C289.619 33.7453 288.902 34.5024 288.441 35.4147L290.921 36.4497C291.166 35.9971 291.535 35.6259 291.987 35.3809C292.438 35.1358 292.95 35.0277 293.461 35.0697C293.815 35.0281 294.175 35.0577 294.518 35.1571C294.861 35.2565 295.18 35.4234 295.459 35.6483C295.737 35.873 295.968 36.1512 296.138 36.4665C296.309 36.7817 296.413 37.1278 296.449 37.4847V37.6797C295.551 37.2027 294.551 36.9553 293.536 36.9597C290.861 36.9597 288.157 38.4597 288.157 41.1747C288.185 41.7536 288.326 42.3212 288.574 42.8442C288.823 43.3672 289.173 43.8347 289.605 44.2194C290.037 44.604 290.542 44.8977 291.088 45.0833C291.636 45.2687 292.213 45.3424 292.789 45.2997C293.492 45.3504 294.197 45.2101 294.827 44.8932C295.457 44.5766 295.992 44.0952 296.374 43.4997H296.464V44.9997H299.153V37.7847C299.153 34.4997 296.673 32.5947 293.491 32.5947L293.416 32.5497ZM293.072 42.8247C292.161 42.8247 290.891 42.3597 290.891 41.2347C290.891 39.7347 292.475 39.2397 293.879 39.2397C294.766 39.2176 295.643 39.4352 296.419 39.8697C296.325 40.6817 295.942 41.4326 295.342 41.9839C294.74 42.5352 293.961 42.8498 293.147 42.8697L293.072 42.8247ZM308.953 32.9997L305.756 41.1297H305.666L302.35 32.9997H299.362L304.337 44.3697L301.498 50.6847H304.411L312.06 32.9997H308.953ZM283.84 44.9997H286.634V26.2497H283.84V44.9997Z" fill="#242424"/>
<path d="M194.842 15.454C194.867 16.004 194.781 16.5539 194.588 17.0695C194.396 17.5852 194.101 18.0562 193.721 18.454C193.298 18.8958 192.786 19.2431 192.22 19.4731C191.653 19.7032 191.045 19.8108 190.435 19.789C189.508 19.7817 188.605 19.5001 187.837 18.9795C187.07 18.4589 186.472 17.7224 186.12 16.8623C185.767 16.0023 185.675 15.0569 185.856 14.1446C186.036 13.2323 186.48 12.3938 187.133 11.734C187.562 11.2941 188.077 10.9474 188.644 10.7152C189.212 10.483 189.822 10.3702 190.435 10.384C191.066 10.3818 191.692 10.5095 192.272 10.759C192.813 10.9779 193.294 11.3223 193.676 11.764L192.885 12.559C192.587 12.2029 192.21 11.9213 191.785 11.7364C191.359 11.5516 190.897 11.4686 190.435 11.494C189.968 11.4917 189.506 11.584 189.076 11.7654C188.645 11.9469 188.256 12.2137 187.931 12.5499C187.606 12.886 187.352 13.2847 187.184 13.7219C187.016 14.159 186.938 14.6257 186.954 15.094C186.944 15.7932 187.141 16.4795 187.519 17.0667C187.897 17.6538 188.44 18.1154 189.08 18.3929C189.719 18.6704 190.425 18.7516 191.111 18.6265C191.796 18.5011 192.429 18.175 192.929 17.689C193.389 17.1888 193.654 16.5391 193.676 15.859H190.435V14.779H194.782C194.822 15.0016 194.842 15.2276 194.842 15.454ZM201.684 11.704H197.65V14.554H201.325V15.634H197.65V18.484H201.684V19.594H196.455V10.594H201.684V11.704ZM206.584 19.594H205.434V11.704H202.924V10.594H209.153V11.704H206.584V19.594ZM213.546 19.594V10.594H214.696V19.594H213.546ZM219.805 19.594H218.655V11.704H216.145V10.594H222.3V11.704H219.805V19.594ZM233.967 18.424C233.095 19.296 231.912 19.7856 230.68 19.7856C229.449 19.7856 228.267 19.296 227.394 18.424C226.545 17.5216 226.072 16.3276 226.072 15.0865C226.072 13.8453 226.545 12.6512 227.394 11.749C227.825 11.3136 228.337 10.968 228.901 10.7322C229.465 10.4964 230.07 10.375 230.68 10.375C231.292 10.375 231.896 10.4964 232.461 10.7322C233.025 10.968 233.537 11.3136 233.967 11.749C234.819 12.6495 235.295 13.8442 235.295 15.0865C235.295 16.3287 234.819 17.5236 233.967 18.424ZM228.245 17.674C228.893 18.3206 229.768 18.6837 230.68 18.6837C231.594 18.6837 232.469 18.3206 233.115 17.674C233.754 16.9675 234.107 16.0478 234.107 15.094C234.107 14.1401 233.754 13.2204 233.115 12.514C232.469 11.8673 231.594 11.5042 230.68 11.5042C229.768 11.5042 228.893 11.8673 228.245 12.514C227.608 13.2204 227.254 14.1401 227.254 15.094C227.254 16.0478 227.608 16.9675 228.245 17.674ZM236.91 19.594V10.594H238.314L242.677 17.599V10.594H243.827V19.594H242.632L238.075 12.259V19.594H236.91Z" fill="#242424"/>
<path fill-rule="evenodd" clip-rule="evenodd" d="M230.681 10.5266C230.091 10.5266 229.505 10.6441 228.959 10.8723C228.414 11.1003 227.918 11.4342 227.502 11.8549C226.681 12.7291 226.222 13.8858 226.222 15.088C226.222 16.29 226.681 17.4467 227.502 18.3209C228.348 19.1639 229.49 19.6371 230.681 19.6371C231.873 19.6371 233.017 19.1638 233.861 18.3206C234.686 17.4482 235.146 16.291 235.146 15.088C235.146 13.8849 234.686 12.7276 233.861 11.8551C233.445 11.4343 232.95 11.1003 232.404 10.8723C231.858 10.6441 231.273 10.5266 230.681 10.5266ZM228.845 10.5953C229.426 10.3519 230.051 10.2266 230.681 10.2266C231.313 10.2266 231.937 10.3519 232.519 10.5953C233.101 10.8388 233.63 11.1955 234.075 11.6449L234.076 11.6472C234.955 12.5756 235.445 13.8074 235.445 15.088C235.445 16.3687 234.955 17.6005 234.076 18.5289L234.073 18.532C233.172 19.4319 231.953 19.9371 230.681 19.9371C229.411 19.9371 228.191 19.4319 227.29 18.5319L227.286 18.5286C226.412 17.5986 225.924 16.3675 225.924 15.088C225.924 13.8085 226.412 12.5776 227.286 11.6476L227.289 11.6448C227.733 11.1954 228.262 10.8388 228.845 10.5953ZM190.432 10.5355C189.84 10.5223 189.251 10.6312 188.702 10.8557C188.153 11.0802 187.655 11.4154 187.241 11.8405C186.608 12.4792 186.178 13.2921 186.003 14.1753C185.829 15.0587 185.917 15.9741 186.259 16.8067C186.6 17.6395 187.179 18.3527 187.922 18.8568C188.665 19.3608 189.54 19.6334 190.437 19.6405H190.441C191.03 19.6616 191.618 19.5577 192.165 19.3357C192.711 19.1136 193.205 18.7783 193.614 18.3517C193.98 17.9685 194.264 17.515 194.449 17.0184C194.635 16.5217 194.718 15.9924 194.693 15.4624L194.843 15.4555H194.693C194.693 15.2797 194.681 15.1044 194.656 14.9305H190.585V15.7105H193.832L193.827 15.8654C193.803 16.5817 193.524 17.2656 193.04 17.7922L193.034 17.7985C192.512 18.3052 191.853 18.6449 191.138 18.7755C190.424 18.9062 189.687 18.8215 189.021 18.532C188.355 18.2428 187.789 17.7618 187.394 17.1498C187.001 16.5388 186.796 15.8246 186.805 15.097C186.789 14.6099 186.871 14.1243 187.045 13.6694C187.22 13.2135 187.486 12.7977 187.825 12.447C188.164 12.0963 188.57 11.818 189.019 11.6287C189.466 11.4401 189.947 11.3438 190.432 11.3455C190.916 11.3197 191.4 11.4069 191.845 11.6004C192.242 11.7728 192.598 12.0254 192.892 12.3419L193.471 11.7604C193.121 11.3861 192.693 11.0923 192.217 10.8997L192.214 10.8985C191.652 10.657 191.047 10.5335 190.436 10.5356L190.432 10.5355ZM194.992 15.4521C195.018 16.0214 194.928 16.59 194.729 17.1236C194.529 17.6584 194.223 18.1469 193.83 18.5593C193.392 19.0164 192.862 19.3758 192.277 19.6138C191.691 19.8514 191.063 19.9627 190.432 19.9405C189.477 19.9326 188.546 19.642 187.755 19.1054C186.963 18.5681 186.346 17.8083 185.983 16.921C185.619 16.0335 185.524 15.0581 185.71 14.1169C185.896 13.1759 186.354 12.3109 187.028 11.6302C187.471 11.1759 188.002 10.8177 188.589 10.5779C189.175 10.3382 189.804 10.2217 190.437 10.2356C191.088 10.2336 191.732 10.3652 192.33 10.622C192.892 10.8499 193.393 11.208 193.79 11.6671L193.881 11.7727L192.876 12.7823L192.771 12.6571C192.488 12.3188 192.13 12.0513 191.726 11.8757C191.322 11.7001 190.883 11.6212 190.444 11.6453L190.435 11.6458C189.988 11.6436 189.546 11.7317 189.134 11.9053C188.723 12.079 188.35 12.3343 188.039 12.656C187.728 12.9776 187.485 13.3591 187.324 13.7774C187.164 14.1956 187.089 14.6422 187.104 15.0903L187.104 15.0977C187.095 15.7672 187.283 16.4245 187.645 16.9867C188.008 17.5491 188.528 17.9909 189.14 18.2568C189.752 18.5226 190.429 18.6003 191.085 18.4804C191.74 18.3607 192.344 18.0494 192.823 17.5856C193.222 17.1505 193.466 16.5966 193.519 16.0105H190.286V14.6305H194.908L194.93 14.7539C194.971 14.9844 194.992 15.2179 194.992 15.4521ZM196.307 10.4456H201.834V11.8556H197.801V14.4055H201.476V15.7855H197.801V18.3355H201.834V19.7455H196.307V10.4456ZM196.606 10.7456V19.4455H201.535V18.6355H197.502V15.4855H201.177V14.7055H197.502V11.5556H201.535V10.7456H196.606ZM202.775 10.4456H209.304V11.8556H206.734V19.7455H205.285V11.8556H202.775V10.4456ZM203.074 10.7456V11.5556H205.584V19.4455H206.436V11.5556H209.005V10.7456H203.074ZM213.397 10.4456H214.846V19.7455H213.397V10.4456ZM213.696 10.7456V19.4455H214.548V10.7456H213.696ZM215.997 10.4456H222.45V11.8556H219.955V19.7455H218.506V11.8556H215.997V10.4456ZM216.295 10.7456V11.5556H218.805V19.4455H219.657V11.5556H222.152V10.7456H216.295ZM236.762 10.4456H238.399L242.528 17.0777V10.4456H243.977V19.7455H242.55L238.226 12.7845V19.7455H236.762V10.4456ZM237.06 10.7456V19.4455H237.927V11.7366L242.716 19.4455H243.678V10.7456H242.827V18.1233L238.232 10.7456H237.06ZM228.142 12.4093C228.816 11.7346 229.729 11.3558 230.681 11.3558C231.634 11.3558 232.548 11.7346 233.222 12.4093L233.228 12.4147C233.891 13.1487 234.258 14.1044 234.258 15.0955C234.258 16.0867 233.89 17.0422 233.228 17.7763L233.222 17.782C232.548 18.4567 231.634 18.8353 230.681 18.8353C229.729 18.8353 228.816 18.4564 228.142 17.7817L228.246 17.6755L228.136 17.7763C227.472 17.0422 227.106 16.0867 227.106 15.0955C227.106 14.1044 227.472 13.1488 228.136 12.4148L228.142 12.4093ZM228.355 17.572C228.973 18.1889 229.81 18.5353 230.681 18.5353C231.554 18.5353 232.39 18.1889 233.009 17.572C233.62 16.8934 233.959 16.0109 233.959 15.0955C233.959 14.1802 233.62 13.2977 233.009 12.6192C232.39 12.0021 231.554 11.6558 230.681 11.6558C229.81 11.6558 228.973 12.0022 228.355 12.6192C227.743 13.2977 227.405 14.1802 227.405 15.0955C227.405 16.0109 227.743 16.8934 228.355 17.572Z" fill="#242424"/>
<path d="M139.775 49.0455L158.077 29.9861L139.791 10.9609C139.302 11.2571 139 11.9429 139 12.8406V47.184C139.007 48.0817 139.298 48.7174 139.775 49.0455Z" fill="#242424"/>
<path d="M158.729 29.4594L164.181 23.7815L141.981 11.1041C141.607 10.8779 141.183 10.7584 140.75 10.7578L158.727 29.4571L158.729 29.4594Z" fill="#242424"/>
<path d="M158.729 30.5156L140.695 49.2971C141.148 49.305 141.594 49.1819 141.983 48.9416L164.227 36.2301L158.729 30.5156Z" fill="#242424"/>
<path d="M172.222 28.3828L164.835 24.1562L159.234 29.9892L164.876 35.8586L172.22 31.6434C173.782 30.7479 173.782 29.2738 172.222 28.3828Z" fill="#242424"/>
</svg>
